# xmcd CD database file
# Copyright 1993-1996 (C) Ti Kan
#
# Track frame offsets:
#    182
#    17302
#    34137
#    50327
#    64272
#    82572
#    97250
#    119617
#    138212
#    149337
#    172475
#
# Disc length: 2503 seconds
#
# Revision: 0
# Processed by: cddbd v1.4b41PL1 Copyright (c) Steve Scherf et al.
# Submitted via: MyCDplayer 2.3.5  (wjohn@fix.net)
#
DISCID=9609c50b
DTITLE=Blue Mountian - 
DTITLE=Blue Mountian
DYEAR=1900
DGENRE=
TTITLE0=Bud
TTITLE1=Let's Ride
TTITLE2=Song Without a Name
TTITLE3=West Bound
TTITLE4=Mountian Girl
TTITLE5=900 Miles
TTITLE6=Soul Sister
TTITLE7=In a Station
TTITLE8=Jimmy Carter
TTITLE9=Go 'Way Devil
TTITLE10=Wink
EXTD=
EXTT0=
EXTT1=
EXTT2=
EXTT3=
EXTT4=
EXTT5=
EXTT6=
EXTT7=
EXTT8=
EXTT9=
EXTT10=
PLAYORDER=
